<svg width="24" height="25" viewBox="0 0 24 25" fill="none" xmlns="http://www.w3.org/2000/svg">
<path d="M2 9.06907C2 7.87289 2.48238 7.13982 3.48063 6.58428L7.58987 4.29744C9.7431 3.09915 10.8197 2.5 12 2.5C13.1803 2.5 14.2569 3.09915 16.4101 4.29744L20.5194 6.58428C21.5176 7.13982 22 7.8729 22 9.06907C22 9.39343 22 9.55561 21.9646 9.68894C21.7785 10.3895 21.1437 10.5 20.5307 10.5H3.46928C2.85627 10.5 2.22152 10.3894 2.03542 9.68894C2 9.55561 2 9.39343 2 9.06907Z" stroke="#141B34" stroke-width="1.5"/>
<path d="M11.9958 7.5H12.0048" stroke="#141B34" stroke-width="2" stroke-linecap="round" stroke-linejoin="round"/>
<path d="M4 10.5V19M8 10.5V19" stroke="#141B34" stroke-width="1.5"/>
<path d="M16 10.5V19M20 10.5V19" stroke="#141B34" stroke-width="1.5"/>
<path d="M19 19H5C3.34315 19 2 20.3431 2 22C2 22.2761 2.22386 22.5 2.5 22.5H21.5C21.7761 22.5 22 22.2761 22 22C22 20.3431 20.6569 19 19 19Z" stroke="#141B34" stroke-width="1.5"/>
</svg>
