<svg width="26" height="26" viewBox="0 0 26 26" fill="none" xmlns="http://www.w3.org/2000/svg">
<path fill-rule="evenodd" clip-rule="evenodd" d="M13 25.8C20.0693 25.8 25.8 20.0692 25.8 13C25.8 5.93076 20.0693 0.200001 13 0.200001C5.93077 0.200001 0.200012 5.93076 0.200012 13C0.200012 20.0692 5.93077 25.8 13 25.8ZM8.20006 5C7.3164 5 6.60006 5.71634 6.60006 6.6C6.60006 7.48366 7.3164 8.2 8.20006 8.2H9.80006C10.9845 8.2 12.0187 8.84352 12.572 9.8H8.20006C7.3164 9.8 6.60006 10.5163 6.60006 11.4C6.60006 12.2837 7.3164 13 8.20006 13H12.572C12.0187 13.9565 10.9845 14.6 9.80006 14.6H8.20006C7.55292 14.6 6.9695 14.9898 6.72185 15.5877C6.4742 16.1856 6.61109 16.8738 7.06869 17.3314L11.8687 22.1314C12.4935 22.7562 13.5066 22.7562 14.1314 22.1314C14.7563 21.5065 14.7563 20.4935 14.1314 19.8686L11.7578 17.495C13.8356 16.8282 15.4506 15.1283 15.9984 13H17.8001C18.6837 13 19.4001 12.2837 19.4001 11.4C19.4001 10.5163 18.6837 9.8 17.8001 9.8H15.9984C15.8523 9.23237 15.6303 8.69521 15.3439 8.2H17.8001C18.6837 8.2 19.4001 7.48366 19.4001 6.6C19.4001 5.71634 18.6837 5 17.8001 5H8.20006Z" fill="#00AAFF"/>
</svg>
