<svg width="16" height="16" viewBox="0 0 16 16" fill="none" xmlns="http://www.w3.org/2000/svg">
<path d="M12 1.33325V2.66659M4 1.33325V2.66659" stroke="#141B34" stroke-width="1.5" stroke-linecap="round" stroke-linejoin="round"/>
<path d="M6.66667 11.3334L6.66666 8.89821C6.66666 8.77041 6.5755 8.66675 6.46305 8.66675H6M9.08647 11.3334L9.98947 8.89955C10.0317 8.78575 9.94187 8.66675 9.8138 8.66675H8.66667" stroke="#141B34" stroke-width="1.5" stroke-linecap="round"/>
<path d="M1.66663 8.16213C1.66663 5.25729 1.66663 3.80485 2.50137 2.90243C3.33612 2 4.67962 2 7.36663 2H8.63329C11.3203 2 12.6638 2 13.4986 2.90243C14.3333 3.80485 14.3333 5.25729 14.3333 8.16213V8.50453C14.3333 11.4094 14.3333 12.8618 13.4986 13.7643C12.6638 14.6667 11.3203 14.6667 8.63329 14.6667H7.36663C4.67962 14.6667 3.33612 14.6667 2.50137 13.7643C1.66663 12.8618 1.66663 11.4094 1.66663 8.50453V8.16213Z" stroke="#141B34" stroke-width="1.5" stroke-linecap="round" stroke-linejoin="round"/>
<path d="M4 5.33325H12" stroke="#141B34" stroke-width="1.5" stroke-linecap="round" stroke-linejoin="round"/>
</svg>
