<svg width="25" height="24" viewBox="0 0 25 24" fill="none" xmlns="http://www.w3.org/2000/svg">
<path d="M20.5 9C19.7048 5.01455 16.0128 2 11.5793 2C6.56549 2 2.5 5.85521 2.5 10.61C2.5 12.8946 3.43819 14.9704 4.96855 16.5108C5.30549 16.85 5.53045 17.3134 5.43966 17.7903C5.28982 18.5701 4.95026 19.2975 4.45305 19.9037C5.76123 20.1449 7.12147 19.9277 8.28801 19.3127C8.70039 19.0954 8.90657 18.9867 9.05207 18.9646C9.15392 18.9492 9.28659 18.9636 9.5 19.0002" stroke="#141B34" stroke-width="1.5" stroke-linecap="round" stroke-linejoin="round"/>
<path d="M11.5 16.2617C11.5 19.1674 13.9628 21.5234 17 21.5234C17.3571 21.5238 17.7132 21.4908 18.064 21.425C18.3165 21.3775 18.4428 21.3538 18.5309 21.3673C18.619 21.3807 18.744 21.4472 18.9938 21.58C19.7004 21.9558 20.5244 22.0885 21.3169 21.9411C21.0157 21.5707 20.81 21.1262 20.7192 20.6496C20.6642 20.3582 20.8005 20.075 21.0046 19.8677C21.9317 18.9263 22.5 17.6578 22.5 16.2617C22.5 13.356 20.0372 11 17 11C13.9628 11 11.5 13.356 11.5 16.2617Z" stroke="#141B34" stroke-width="1.5" stroke-linejoin="round"/>
</svg>
