<svg width="16" height="17" viewBox="0 0 16 17" fill="none" xmlns="http://www.w3.org/2000/svg">
<path d="M11.3092 6.48798C11.3076 4.52121 11.2778 3.50248 10.7052 2.80494C10.5947 2.67022 10.4712 2.54671 10.3365 2.43616C9.60057 1.83228 8.5073 1.83228 6.32062 1.83228C4.13396 1.83228 3.04064 1.83228 2.30476 2.43616C2.17004 2.5467 2.04651 2.67022 1.93595 2.80494C1.33203 3.54077 1.33203 4.63402 1.33203 6.82052C1.33203 9.00705 1.33203 10.1002 1.93595 10.8361C2.0465 10.9708 2.17004 11.0943 2.30476 11.2048C3.00234 11.7774 4.02115 11.8071 5.98804 11.8087" stroke="#141B34" stroke-width="1.5" stroke-linecap="round" stroke-linejoin="round"/>
<path d="M9.35224 6.51645L11.3294 6.48804M9.34291 15.1676L11.32 15.1392M14.6478 9.84815L14.6291 11.8213M6.00693 9.85722L5.98828 11.8303M7.65824 6.51645C7.10304 6.61589 6.21191 6.71817 6.00693 7.86595M12.9964 15.1392C13.5531 15.0483 14.4457 14.9597 14.6684 13.8152M12.9964 6.51645C13.5516 6.61589 14.4428 6.71817 14.6478 7.86595M7.66671 15.1383C7.11151 15.0392 6.2203 14.9374 6.01469 13.7897" stroke="#141B34" stroke-width="1.5" stroke-linecap="round" stroke-linejoin="round"/>
</svg>
