<svg width="25" height="24" viewBox="0 0 25 24" fill="none" xmlns="http://www.w3.org/2000/svg">
<path d="M9.64339 10.691L9.85031 10.4841C11.829 8.50532 15.0372 8.50532 17.0159 10.4841C18.9947 12.4628 18.9947 15.671 17.0159 17.6497L14.1497 20.5159C12.171 22.4947 8.96279 22.4947 6.98405 20.5159C5.00532 18.5372 5.00532 15.329 6.98405 13.3503L7.4484 12.886" stroke="#141B34" stroke-width="1.5" stroke-linecap="round"/>
<path d="M17.5516 11.114L18.0159 10.6497C19.9947 8.67095 19.9947 5.46279 18.0159 3.48405C16.0372 1.50532 12.829 1.50532 10.8503 3.48405L7.98405 6.35031C6.00532 8.32904 6.00532 11.5372 7.98405 13.5159C9.96279 15.4947 13.171 15.4947 15.1497 13.5159L15.3566 13.309" stroke="#141B34" stroke-width="1.5" stroke-linecap="round"/>
</svg>
