<svg width="18" height="17" viewBox="0 0 18 17" fill="none" xmlns="http://www.w3.org/2000/svg">
<path d="M0.518187 8.3058C0.130127 7.23176 -0.0639027 6.69476 0.0188373 6.35065C0.109327 5.97427 0.376997 5.68084 0.719127 5.58296C1.03193 5.49346 1.51853 5.70973 2.49173 6.14227C3.35253 6.52486 3.78293 6.71615 4.18732 6.70551C4.63257 6.69379 5.06088 6.51524 5.4016 6.19931C5.71105 5.91237 5.91861 5.45513 6.33373 4.54064L7.2486 2.52525C8.0128 0.84175 8.3949 0 9 0C9.6051 0 9.9872 0.84175 10.7514 2.52525L11.6663 4.54064C12.0814 5.45513 12.289 5.91237 12.5984 6.19931C12.9391 6.51524 13.3674 6.69379 13.8127 6.70551C14.2171 6.71615 14.6475 6.52486 15.5083 6.14227C16.4815 5.70973 16.9681 5.49346 17.2809 5.58296C17.623 5.68084 17.8907 5.97427 17.9812 6.35065C18.0639 6.69476 17.8699 7.23176 17.4818 8.3057L15.8138 12.9222C15.1002 14.897 14.7435 15.8844 13.9968 16.4422C13.2502 17 12.2854 17 10.3558 17H7.6442C5.71459 17 4.74977 17 4.00315 16.4422C3.25654 15.8844 2.89977 14.897 2.18622 12.9222L0.518187 8.3058Z" fill="#ECD400"/>
</svg>
