<svg width="48" height="48" viewBox="0 0 48 48" fill="none" xmlns="http://www.w3.org/2000/svg">
<path fill-rule="evenodd" clip-rule="evenodd" d="M24 43.2C34.6039 43.2 43.2001 34.6039 43.2001 24C43.2001 13.3961 34.6039 4.8 24 4.8C13.3962 4.8 4.80005 13.3961 4.80005 24C4.80005 34.6039 13.3962 43.2 24 43.2ZM16.8001 12C15.4746 12 14.4001 13.0745 14.4001 14.4C14.4001 15.7255 15.4746 16.8 16.8001 16.8H19.2001C20.9768 16.8 22.528 17.7653 23.358 19.2H16.8001C15.4746 19.2 14.4001 20.2745 14.4001 21.6C14.4001 22.9255 15.4746 24 16.8001 24H23.358C22.528 25.4347 20.9768 26.4 19.2001 26.4H16.8001C15.8294 26.4 14.9543 26.9847 14.5828 27.8816C14.2113 28.7784 14.4167 29.8107 15.1031 30.4971L22.3031 37.6971C23.2403 38.6343 24.7599 38.6343 25.6972 37.6971C26.6344 36.7598 26.6344 35.2402 25.6972 34.3029L22.1368 30.7425C25.2534 29.7422 27.676 27.1925 28.4977 24H31.2001C32.5256 24 33.6001 22.9255 33.6001 21.6C33.6001 20.2745 32.5256 19.2 31.2001 19.2H28.4977C28.2785 18.3485 27.9455 17.5428 27.5158 16.8H31.2001C32.5256 16.8 33.6001 15.7255 33.6001 14.4C33.6001 13.0745 32.5256 12 31.2001 12H16.8001Z" fill="#292D32"/>
</svg>
