<svg width="44" height="44" viewBox="0 0 44 44" fill="none" xmlns="http://www.w3.org/2000/svg">
<path d="M26.4249 14.6051L27.4149 13.6151C28.2351 12.795 29.5648 12.795 30.3849 13.6151C31.205 14.4352 31.205 15.7649 30.3849 16.5851L29.3949 17.5751M26.4249 14.6051L19.7656 21.2644C19.2581 21.772 18.898 22.4078 18.724 23.1041L18 26L20.8959 25.276C21.5922 25.102 22.228 24.7419 22.7356 24.2344L29.3949 17.5751M26.4249 14.6051L29.3949 17.5751" stroke="#141B34" stroke-width="1.5" stroke-linejoin="round"/>
<path d="M28.9999 23.5C28.9999 26.7875 28.9999 28.4312 28.092 29.5376C27.9258 29.7401 27.7401 29.9258 27.5375 30.092C26.4312 31 24.7874 31 21.4999 31H21C17.2288 31 15.3432 31 14.1716 29.8284C13 28.6569 13 26.7712 13 23V22.5C13 19.2125 13 17.5688 13.9079 16.4624C14.0742 16.2599 14.2599 16.0742 14.4624 15.9079C15.5688 15 17.2125 15 20.5 15" stroke="#141B34" stroke-width="1.5" stroke-linecap="round" stroke-linejoin="round"/>
</svg>
