<svg width="34" height="34" viewBox="0 0 34 34" fill="none" xmlns="http://www.w3.org/2000/svg">
<rect width="34" height="34" rx="17" fill="white"/>
<rect x="0.5" y="0.5" width="33" height="33" rx="16.5" stroke="black" stroke-opacity="0.15"/>
<path d="M19.0737 8.88545C19.8189 8.07808 20.1915 7.6744 20.5874 7.43893C21.5427 6.87076 22.7191 6.85309 23.6904 7.39232C24.0929 7.6158 24.4769 8.00812 25.245 8.79276C26.0131 9.5774 26.3972 9.96972 26.6159 10.3809C27.1438 11.3731 27.1265 12.5748 26.5703 13.5507C26.3398 13.9552 25.9446 14.3358 25.1543 15.097L15.7506 24.1543C14.2529 25.5969 13.504 26.3182 12.5681 26.6837C11.6321 27.0493 10.6032 27.0224 8.54536 26.9686L8.26538 26.9613C7.63891 26.9449 7.32567 26.9367 7.14359 26.73C6.9615 26.5234 6.98636 26.2043 7.03608 25.5662L7.06308 25.2197C7.20301 23.4235 7.27297 22.5255 7.62371 21.7182C7.97444 20.9109 8.57944 20.2555 9.78943 18.9445L19.0737 8.88545Z" stroke="#141B34" stroke-width="1.5" stroke-linejoin="round"/>
<path d="M18 9L25 16" stroke="#141B34" stroke-width="1.5" stroke-linejoin="round"/>
<path d="M19 27H27" stroke="#141B34" stroke-width="1.5" stroke-linecap="round" stroke-linejoin="round"/>
</svg>
