<svg width="24" height="24" viewBox="0 0 24 24" fill="none" xmlns="http://www.w3.org/2000/svg">
<path d="M2 11.5024C2 7.0241 2 4.78493 3.39124 3.39368C4.78249 2.00244 7.02166 2.00244 11.5 2.00244C15.9783 2.00244 18.2175 2.00244 19.6088 3.39368C21 4.78493 21 7.0241 21 11.5024C21 15.9807 21 18.2199 19.6088 19.6112C18.2175 21.0024 15.9783 21.0024 11.5 21.0024C7.02166 21.0024 4.78249 21.0024 3.39124 19.6112C2 18.2199 2 15.9807 2 11.5024Z" stroke="#141B34" stroke-opacity="0.75" stroke-width="1.5"/>
<path d="M8.5 11.5024H14.5001" stroke="#141B34" stroke-opacity="0.75" stroke-width="1.5" stroke-linecap="round" stroke-linejoin="round"/>
<path d="M9.5 15.0024H13.5" stroke="#141B34" stroke-opacity="0.75" stroke-width="1.5" stroke-linecap="round" stroke-linejoin="round"/>
<path d="M7.5 8.00244H15.5" stroke="#141B34" stroke-opacity="0.75" stroke-width="1.5" stroke-linecap="round" stroke-linejoin="round"/>
</svg>
