<svg width="40" height="40" viewBox="0 0 40 40" fill="none" xmlns="http://www.w3.org/2000/svg">
<path fill-rule="evenodd" clip-rule="evenodd" d="M20 39.2C30.6039 39.2 39.2 30.6039 39.2 20C39.2 9.39613 30.6039 0.799999 20 0.799999C9.39614 0.799999 0.800003 9.39613 0.800003 20C0.800003 30.6039 9.39614 39.2 20 39.2ZM12.8001 8C11.4746 8 10.4001 9.07452 10.4001 10.4C10.4001 11.7255 11.4746 12.8 12.8001 12.8H15.2001C16.9768 12.8 18.528 13.7653 19.3579 15.2H12.8001C11.4746 15.2 10.4001 16.2745 10.4001 17.6C10.4001 18.9255 11.4746 20 12.8001 20H19.3579C18.528 21.4347 16.9768 22.4 15.2001 22.4H12.8001C11.8294 22.4 10.9542 22.9847 10.5828 23.8816C10.2113 24.7784 10.4166 25.8107 11.103 26.4971L18.303 33.6971C19.2403 34.6343 20.7599 34.6343 21.6971 33.6971C22.6344 32.7598 22.6344 31.2402 21.6971 30.3029L18.1367 26.7425C21.2534 25.7422 23.676 23.1925 24.4976 20H27.2001C28.5256 20 29.6001 18.9255 29.6001 17.6C29.6001 16.2745 28.5256 15.2 27.2001 15.2H24.4976C24.2785 14.3485 23.9455 13.5428 23.5158 12.8H27.2001C28.5256 12.8 29.6001 11.7255 29.6001 10.4C29.6001 9.07452 28.5256 8 27.2001 8H12.8001Z" fill="#80C99F"/>
</svg>
