<svg width="16" height="16" viewBox="0 0 16 16" fill="none" xmlns="http://www.w3.org/2000/svg">
<path d="M10.0007 3.00236H14.0007M10.0007 3.00236C10.0007 2.53554 11.3303 1.66338 11.6674 1.33569M10.0007 3.00236C10.0007 3.46918 11.3303 4.34134 11.6674 4.66903" stroke="#141B34" stroke-width="1.5" stroke-linecap="round" stroke-linejoin="round"/>
<path d="M4.34188 9.01224V2.32627C4.34188 1.77851 4.78644 1.33447 5.33483 1.33447C5.88323 1.33447 6.32779 1.77851 6.32779 2.32627V5.79433M6.32779 5.79433V7.34344M6.32779 5.79433C6.8644 5.04871 8.06613 5.29706 8.32193 6.4563C8.32613 6.47554 8.3296 6.49493 8.3324 6.51443M8.3324 6.51443C8.33987 6.56657 8.34247 6.61944 8.34247 6.67217V7.34077M8.3324 6.51443C8.6612 5.61419 10.1709 5.95751 10.3352 7.24304M10.3352 7.24304V8.00704M10.3352 7.24304C10.6045 6.24933 12.3724 6.94384 12.3341 8.10537V10.2244C12.3321 11.3751 12.1401 12.2094 11.456 12.8958C10.824 13.6503 10.9727 14.0726 10.9569 14.6702M4.34188 5.99611C3.46259 6.79197 2.46461 7.87971 2.33719 8.13731C1.74431 9.03871 1.95517 9.74597 2.79772 10.9474C3.42474 11.8416 4.26573 12.838 4.30978 12.8879C4.75818 13.3955 4.67031 13.7996 4.67031 14.6629" stroke="#141B34" stroke-width="1.5" stroke-linecap="round"/>
</svg>
