<svg width="32" height="32" viewBox="0 0 32 32" fill="none" xmlns="http://www.w3.org/2000/svg">
<path d="M18.6666 4.6665H13.3333C8.30497 4.6665 5.79083 4.6665 4.22872 6.2286C2.66663 7.7907 2.66663 10.3049 2.66663 15.3332V16.6665C2.66663 21.6948 2.66663 24.209 4.22872 25.771C5.79083 27.3332 8.30497 27.3332 13.3333 27.3332H18.6666C23.6949 27.3332 26.2092 27.3332 27.7712 25.771C29.3333 24.209 29.3333 21.6948 29.3333 16.6665V15.3332C29.3333 10.3049 29.3333 7.7907 27.7712 6.2286C26.2092 4.6665 23.6949 4.6665 18.6666 4.6665Z" stroke="#141B34" stroke-width="1.5" stroke-linejoin="round"/>
<path d="M6.66663 21.3332C8.04755 17.8917 13.1948 17.6653 14.6666 21.3332" stroke="#141B34" stroke-width="1.5" stroke-linecap="round"/>
<path d="M13 12.9998C13 14.2885 11.9554 15.3332 10.6667 15.3332C9.37804 15.3332 8.33337 14.2885 8.33337 12.9998C8.33337 11.7112 9.37804 10.6665 10.6667 10.6665C11.9554 10.6665 13 11.7112 13 12.9998Z" stroke="#141B34" stroke-width="1.5"/>
<path d="M18.6666 11.3335H25.3333M18.6666 16.0002H25.3333M18.6666 20.6668H22" stroke="#141B34" stroke-width="1.5" stroke-linecap="round" stroke-linejoin="round"/>
</svg>
