<svg width="200" height="201" viewBox="0 0 200 201" fill="none" xmlns="http://www.w3.org/2000/svg">
<path d="M200 100.5C200 155.728 155.228 200.5 100 200.5C44.7715 200.5 0 155.728 0 100.5C0 45.2715 44.7715 0.5 100 0.5C155.228 0.5 200 45.2715 200 100.5ZM10 100.5C10 150.206 50.2944 190.5 100 190.5C149.706 190.5 190 150.206 190 100.5C190 50.7944 149.706 10.5 100 10.5C50.2944 10.5 10 50.7944 10 100.5Z" fill="url(#paint0_linear_792_112)"/>
<path d="M26.792 108.5V106.196H28.616V94.412H26.84V92.132H33.176V106.196H35.528V108.5H26.792ZM33.176 94.508V92.132H42.512V94.508H33.176ZM33.176 101.396V98.996H38.168V101.396H33.176ZM39.992 97.196C39.992 96.252 39.808 95.572 39.44 95.156C39.088 94.724 38.472 94.508 37.592 94.508H42.512V98.276H39.992V97.196ZM33.416 98.996C34.248 98.996 34.84 98.796 35.192 98.396C35.56 97.98 35.744 97.332 35.744 96.452V96.092H38.168V98.996H33.416ZM35.744 103.94C35.744 103.044 35.56 102.396 35.192 101.996C34.84 101.596 34.248 101.396 33.416 101.396H38.168V104.78H35.744V103.94ZM49.9169 108.788C49.0689 108.788 48.3169 108.636 47.6609 108.332C47.0049 108.012 46.4849 107.532 46.1009 106.892C45.7329 106.236 45.5489 105.396 45.5489 104.372V98.084H44.3009V95.852H49.8689V104.276C49.8689 104.82 50.0289 105.228 50.3489 105.5C50.6849 105.772 51.1249 105.908 51.6689 105.908C52.0369 105.908 52.3729 105.844 52.6769 105.716C52.9809 105.572 53.2289 105.348 53.4209 105.044C53.6129 104.724 53.7089 104.3 53.7089 103.772L54.4289 103.748C54.4289 104.772 54.3009 105.66 54.0449 106.412C53.7889 107.164 53.3409 107.748 52.7009 108.164C52.0609 108.58 51.1329 108.788 49.9169 108.788ZM54.2369 108.5V104.42L53.7089 104.516V98.084H52.1489V95.852H58.0769V106.244H59.5889V108.5H54.2369ZM70.0319 108.5V106.244H71.1119V100.172C71.1119 99.612 70.9519 99.196 70.6319 98.924C70.3119 98.652 69.8719 98.516 69.3119 98.516C68.9599 98.516 68.6239 98.588 68.3039 98.732C67.9999 98.86 67.7519 99.084 67.5599 99.404C67.3679 99.708 67.2719 100.124 67.2719 100.652L66.5519 100.676C66.5519 99.668 66.6799 98.788 66.9359 98.036C67.1919 97.268 67.6479 96.684 68.3039 96.284C68.9599 95.868 69.8799 95.66 71.0639 95.66C72.3439 95.66 73.3919 96.012 74.2079 96.716C75.0239 97.404 75.4319 98.516 75.4319 100.052V106.244H76.6799V108.5H70.0319ZM61.1759 108.5V106.244H62.9039V98.084H61.3439V95.852H66.7439V100.1L67.2719 100.028V106.244H68.3519V108.5H61.1759ZM84.2379 108.74C83.1179 108.74 82.1179 108.484 81.2379 107.972C80.3739 107.46 79.7019 106.716 79.2219 105.74C78.7419 104.764 78.5019 103.572 78.5019 102.164C78.5019 100.756 78.7419 99.564 79.2219 98.588C79.7019 97.612 80.3739 96.876 81.2379 96.38C82.1179 95.868 83.1099 95.612 84.2139 95.612C85.3979 95.612 86.3259 95.876 86.9979 96.404C87.6859 96.932 88.1739 97.684 88.4619 98.66C88.7499 99.636 88.8939 100.796 88.8939 102.14L89.2059 102.188C89.2059 103.516 89.0379 104.676 88.7019 105.668C88.3659 106.644 87.8299 107.404 87.0939 107.948C86.3739 108.476 85.4219 108.74 84.2379 108.74ZM85.8219 106.004C86.3659 106.004 86.8379 105.86 87.2379 105.572C87.6379 105.284 87.9419 104.852 88.1499 104.276C88.3579 103.7 88.4619 102.996 88.4619 102.164C88.4619 101.332 88.3579 100.636 88.1499 100.076C87.9419 99.5 87.6379 99.068 87.2379 98.78C86.8379 98.492 86.3659 98.348 85.8219 98.348C85.2779 98.348 84.8059 98.492 84.4059 98.78C84.0059 99.068 83.7019 99.5 83.4939 100.076C83.3019 100.636 83.2059 101.332 83.2059 102.164C83.2059 102.996 83.3019 103.7 83.4939 104.276C83.7019 104.852 84.0059 105.284 84.4059 105.572C84.8059 105.86 85.2779 106.004 85.8219 106.004ZM88.5819 108.5V105.452L88.8219 102.164L88.2459 99.356V93.572H86.7099V91.316H92.6139V106.244H94.1259V108.5H88.5819ZM104.579 108.908C102.771 108.908 101.211 108.572 99.8994 107.9C98.5874 107.212 97.5714 106.228 96.8514 104.948C96.1314 103.668 95.7714 102.124 95.7714 100.316C95.7714 98.508 96.1154 96.964 96.8034 95.684C97.5074 94.404 98.4834 93.428 99.7314 92.756C100.979 92.068 102.427 91.724 104.075 91.724C105.531 91.724 106.747 91.988 107.723 92.516C108.699 93.028 109.427 93.748 109.907 94.676C110.387 95.588 110.627 96.636 110.627 97.82H109.643C109.563 97.292 109.371 96.764 109.067 96.236C108.763 95.692 108.315 95.244 107.723 94.892C107.147 94.54 106.395 94.364 105.467 94.364C104.475 94.364 103.619 94.596 102.899 95.06C102.195 95.508 101.651 96.148 101.267 96.98C100.899 97.812 100.715 98.788 100.715 99.908C100.715 101.044 100.915 102.036 101.315 102.884C101.715 103.716 102.283 104.364 103.019 104.828C103.755 105.292 104.619 105.524 105.611 105.524C106.491 105.524 107.227 105.364 107.819 105.044C108.411 104.708 108.867 104.268 109.187 103.724C109.523 103.18 109.739 102.564 109.835 101.876H112.523C112.459 103.124 112.147 104.284 111.587 105.356C111.027 106.428 110.171 107.292 109.019 107.948C107.867 108.588 106.387 108.908 104.579 108.908ZM110.627 97.82L109.691 95.804V92.132H112.331V97.82H110.627ZM114.379 108.5V106.244H116.107V98.084H114.547V95.852H120.427V106.244H121.939V108.5H114.379ZM118.123 94.94C117.355 94.94 116.723 94.732 116.227 94.316C115.731 93.9 115.483 93.324 115.483 92.588C115.483 91.852 115.731 91.276 116.227 90.86C116.723 90.444 117.363 90.236 118.147 90.236C118.931 90.236 119.563 90.444 120.043 90.86C120.523 91.276 120.763 91.852 120.763 92.588C120.763 93.324 120.523 93.9 120.043 94.316C119.563 94.732 118.923 94.94 118.123 94.94ZM123.52 108.5V106.244H125.248V98.108H123.688V95.876H129.088V100.22L129.568 100.124V106.244H132.16V108.5H123.52ZM128.368 100.652C128.416 99.324 128.656 98.292 129.088 97.556C129.536 96.804 130.112 96.276 130.816 95.972C131.52 95.668 132.264 95.516 133.048 95.516C133.96 95.516 134.688 95.748 135.232 96.212C135.776 96.676 136.048 97.26 136.048 97.964C136.048 98.62 135.832 99.164 135.4 99.596C134.984 100.012 134.408 100.22 133.672 100.22C133.032 100.22 132.52 100.052 132.136 99.716C131.752 99.38 131.56 98.948 131.56 98.42C131.56 97.796 131.752 97.324 132.136 97.004C132.536 96.684 133.176 96.556 134.056 96.62L133.816 98.012C133.736 97.788 133.568 97.62 133.312 97.508C133.072 97.38 132.76 97.316 132.376 97.316C131.928 97.316 131.488 97.436 131.056 97.676C130.624 97.9 130.264 98.26 129.976 98.756C129.704 99.236 129.568 99.868 129.568 100.652H128.368ZM136.972 108.5V106.244H138.604V93.572H137.092V91.316H142.972V106.244H143.932V108.5H136.972ZM145.276 108.5V106.244H146.356L143.836 102.356L146.644 99.788L151.156 106.244H152.308V108.5H145.276ZM142.756 104.972L141.172 103.196L146.788 98.084H144.988V95.852H151.828V98.084H150.46L142.756 104.972ZM153.87 108.5V106.244H155.502V93.572H153.99V91.316H159.87V106.244H161.382V108.5H153.87ZM169.661 108.788C168.349 108.788 167.181 108.532 166.157 108.02C165.149 107.508 164.357 106.764 163.781 105.788C163.221 104.796 162.941 103.588 162.941 102.164C162.941 100.756 163.221 99.564 163.781 98.588C164.341 97.596 165.117 96.844 166.109 96.332C167.101 95.82 168.229 95.564 169.493 95.564L169.613 97.844C169.101 97.844 168.669 97.98 168.317 98.252C167.965 98.508 167.693 98.932 167.501 99.524C167.325 100.116 167.237 100.892 167.237 101.852C167.237 103.004 167.517 103.916 168.077 104.588C168.653 105.26 169.429 105.596 170.405 105.596C170.949 105.596 171.405 105.516 171.773 105.356C172.157 105.18 172.461 104.948 172.685 104.66C172.925 104.356 173.101 104.02 173.213 103.652H175.901C175.837 104.308 175.661 104.94 175.373 105.548C175.101 106.156 174.709 106.708 174.197 107.204C173.701 107.684 173.069 108.068 172.301 108.356C171.549 108.644 170.669 108.788 169.661 108.788ZM164.909 102.404V100.292H171.653L175.949 101.348V102.404H164.909ZM171.653 100.292C171.637 99.86 171.549 99.46 171.389 99.092C171.229 98.708 171.005 98.404 170.717 98.18C170.429 97.956 170.061 97.844 169.613 97.844L169.493 95.564C170.901 95.564 172.077 95.812 173.021 96.308C173.981 96.788 174.709 97.46 175.205 98.324C175.701 99.188 175.949 100.196 175.949 101.348L171.653 100.292Z" fill="url(#paint1_linear_792_112)"/>
<defs>
<linearGradient id="paint0_linear_792_112" x1="100" y1="0.5" x2="100" y2="200.5" gradientUnits="userSpaceOnUse">
<stop stop-color="#00943F"/>
<stop offset="1" stop-color="#00AAFF"/>
</linearGradient>
<linearGradient id="paint1_linear_792_112" x1="26" y1="100.5" x2="178" y2="100.5" gradientUnits="userSpaceOnUse">
<stop stop-color="#00943F"/>
<stop offset="1" stop-color="#00AAFF"/>
</linearGradient>
</defs>
</svg>
