<svg width="200" height="201" viewBox="0 0 200 201" fill="none" xmlns="http://www.w3.org/2000/svg">
<path d="M200 100.5C200 155.728 155.228 200.5 100 200.5C44.7715 200.5 0 155.728 0 100.5C0 45.2715 44.7715 0.5 100 0.5C155.228 0.5 200 45.2715 200 100.5ZM10 100.5C10 150.206 50.2944 190.5 100 190.5C149.706 190.5 190 150.206 190 100.5C190 50.7944 149.706 10.5 100 10.5C50.2944 10.5 10 50.7944 10 100.5Z" fill="url(#paint0_linear_2003_252)"/>
<path d="M26.72 108.5V107.228H29.024V93.404H26.768V92.132H34.544V93.404H31.568V108.5H26.72ZM31.568 108.5V107.036H41.552V108.5H31.568ZM38.12 107.036C38.824 107.036 39.312 106.884 39.584 106.58C39.872 106.276 40.016 105.748 40.016 104.996V102.812H41.552V107.036H38.12ZM50.6778 108.788C49.3818 108.788 48.2298 108.54 47.2218 108.044C46.2138 107.532 45.4218 106.796 44.8458 105.836C44.2698 104.86 43.9818 103.684 43.9818 102.308C43.9818 100.948 44.2698 99.788 44.8458 98.828C45.4218 97.852 46.2138 97.116 47.2218 96.62C48.2298 96.108 49.3818 95.852 50.6778 95.852C51.9738 95.852 53.1258 96.108 54.1338 96.62C55.1418 97.116 55.9338 97.852 56.5098 98.828C57.0858 99.788 57.3738 100.948 57.3738 102.308C57.3738 103.684 57.0858 104.86 56.5098 105.836C55.9338 106.796 55.1418 107.532 54.1338 108.044C53.1258 108.54 51.9738 108.788 50.6778 108.788ZM50.6778 107.3C51.4938 107.3 52.1978 107.1 52.7898 106.7C53.3818 106.3 53.8458 105.724 54.1818 104.972C54.5178 104.22 54.6858 103.308 54.6858 102.236C54.6858 101.212 54.5178 100.34 54.1818 99.62C53.8458 98.884 53.3818 98.324 52.7898 97.94C52.1978 97.54 51.4938 97.34 50.6778 97.34C49.8778 97.34 49.1738 97.54 48.5658 97.94C47.9738 98.324 47.5098 98.892 47.1738 99.644C46.8378 100.38 46.6698 101.268 46.6698 102.308C46.6698 103.38 46.8378 104.284 47.1738 105.02C47.5098 105.756 47.9738 106.324 48.5658 106.724C49.1738 107.108 49.8778 107.3 50.6778 107.3ZM62.3724 100.34C61.9404 100.34 61.5484 100.212 61.1964 99.956C60.8604 99.7 60.6924 99.308 60.6924 98.78C60.6924 98.14 60.9404 97.612 61.4364 97.196C61.9484 96.78 62.6044 96.468 63.4044 96.26C64.2204 96.036 65.0844 95.924 65.9964 95.924C67.4684 95.924 68.6044 96.22 69.4044 96.812C70.2204 97.404 70.6204 98.3 70.6044 99.5L68.3004 99.14C68.3004 98.5 68.0604 98.012 67.5804 97.676C67.1164 97.34 66.4204 97.172 65.4924 97.172C64.9324 97.172 64.3964 97.236 63.8844 97.364C63.3724 97.492 62.9564 97.7 62.6364 97.988C62.3164 98.26 62.1324 98.636 62.0844 99.116L62.0604 97.988C62.5724 98.004 62.9804 98.108 63.2844 98.3C63.6044 98.492 63.7564 98.788 63.7404 99.188C63.7244 99.54 63.5964 99.82 63.3564 100.028C63.1164 100.236 62.7884 100.34 62.3724 100.34ZM71.6844 108.74C70.6764 108.74 69.9004 108.46 69.3564 107.9C68.8284 107.324 68.5644 106.524 68.5644 105.5V104.684H68.3004V101.18H68.1564L68.3004 100.124V99.14L70.6044 99.5V105.692C70.6044 106.108 70.7084 106.46 70.9164 106.748C71.1404 107.02 71.4604 107.156 71.8764 107.156C72.2924 107.156 72.6044 107.02 72.8124 106.748C73.0364 106.46 73.1484 106.108 73.1484 105.692V102.092H74.7564V105.524C74.7564 106.532 74.4924 107.324 73.9644 107.9C73.4524 108.46 72.6924 108.74 71.6844 108.74ZM63.9324 108.74C62.7164 108.74 61.7244 108.452 60.9564 107.876C60.1884 107.284 59.8044 106.468 59.8044 105.428C59.8044 104.692 59.9644 104.092 60.2844 103.628C60.6204 103.148 61.0764 102.772 61.6524 102.5C62.2284 102.212 62.8924 101.988 63.6444 101.828L65.6604 101.396C66.1564 101.3 66.6044 101.172 67.0044 101.012C67.4044 100.836 67.7164 100.596 67.9404 100.292C68.1804 99.988 68.3004 99.604 68.3004 99.14L68.3724 101.18H68.3004C68.1404 101.532 67.8604 101.82 67.4604 102.044C67.0764 102.268 66.5884 102.444 65.9964 102.572L64.9404 102.788C64.4604 102.9 64.0204 103.044 63.6204 103.22C63.2204 103.38 62.9004 103.596 62.6604 103.868C62.4364 104.14 62.3244 104.508 62.3244 104.972C62.3244 105.612 62.5484 106.108 62.9964 106.46C63.4604 106.796 64.0844 106.964 64.8684 106.964C65.4764 106.964 66.0364 106.836 66.5484 106.58C67.0764 106.308 67.5004 105.884 67.8204 105.308C68.1404 104.716 68.3004 103.94 68.3004 102.98L68.9724 103.052C68.9724 104.412 68.7484 105.516 68.3004 106.364C67.8684 107.196 67.2684 107.804 66.5004 108.188C65.7324 108.556 64.8764 108.74 63.9324 108.74ZM85.0811 108.5V107.228H86.8571V100.22C86.8571 99.324 86.6171 98.676 86.1371 98.276C85.6571 97.876 85.0091 97.676 84.1931 97.676C83.6171 97.676 83.0731 97.812 82.5611 98.084C82.0491 98.356 81.6331 98.788 81.3131 99.38C80.9931 99.956 80.8331 100.708 80.8331 101.636H80.2571C80.2571 100.356 80.4331 99.292 80.7851 98.444C81.1531 97.596 81.6891 96.972 82.3931 96.572C83.1131 96.172 84.0171 95.972 85.1051 95.972C86.3371 95.972 87.3451 96.3 88.1291 96.956C88.9131 97.596 89.3051 98.66 89.3051 100.148V107.228H91.1051V108.5H85.0811ZM76.2251 108.5V107.228H78.3611V97.412H76.4411V96.164H80.5451V100.508L80.8331 100.46V107.228H82.6331V108.5H76.2251ZM101.556 108.908C99.7479 108.908 98.1879 108.572 96.8759 107.9C95.5639 107.212 94.5479 106.228 93.8279 104.948C93.1079 103.668 92.7479 102.124 92.7479 100.316C92.7479 98.508 93.0919 96.964 93.7799 95.684C94.4839 94.404 95.4599 93.428 96.7079 92.756C97.9559 92.068 99.4039 91.724 101.052 91.724C102.508 91.724 103.724 91.988 104.7 92.516C105.676 93.028 106.404 93.748 106.884 94.676C107.364 95.588 107.604 96.636 107.604 97.82H106.62C106.54 97.292 106.348 96.764 106.044 96.236C105.74 95.692 105.292 95.244 104.7 94.892C104.124 94.54 103.372 94.364 102.444 94.364C101.452 94.364 100.596 94.596 99.8759 95.06C99.1719 95.508 98.6279 96.148 98.2439 96.98C97.8759 97.812 97.6919 98.788 97.6919 99.908C97.6919 101.044 97.8919 102.036 98.2919 102.884C98.6919 103.716 99.2599 104.364 99.9959 104.828C100.732 105.292 101.596 105.524 102.588 105.524C103.468 105.524 104.204 105.364 104.796 105.044C105.388 104.708 105.844 104.268 106.164 103.724C106.5 103.18 106.716 102.564 106.812 101.876H109.5C109.436 103.124 109.124 104.284 108.564 105.356C108.004 106.428 107.148 107.292 105.996 107.948C104.844 108.588 103.364 108.908 101.556 108.908ZM107.604 97.82L106.668 95.804V92.132H109.308V97.82H107.604ZM111.356 108.5V106.244H113.084V98.084H111.524V95.852H117.404V106.244H118.916V108.5H111.356ZM115.1 94.94C114.332 94.94 113.7 94.732 113.204 94.316C112.708 93.9 112.46 93.324 112.46 92.588C112.46 91.852 112.708 91.276 113.204 90.86C113.7 90.444 114.34 90.236 115.124 90.236C115.908 90.236 116.54 90.444 117.02 90.86C117.5 91.276 117.74 91.852 117.74 92.588C117.74 93.324 117.5 93.9 117.02 94.316C116.54 94.732 115.9 94.94 115.1 94.94ZM120.496 108.5V106.244H122.224V98.108H120.664V95.876H126.064V100.22L126.544 100.124V106.244H129.136V108.5H120.496ZM125.344 100.652C125.392 99.324 125.632 98.292 126.064 97.556C126.512 96.804 127.088 96.276 127.792 95.972C128.496 95.668 129.24 95.516 130.024 95.516C130.936 95.516 131.664 95.748 132.208 96.212C132.752 96.676 133.024 97.26 133.024 97.964C133.024 98.62 132.808 99.164 132.376 99.596C131.96 100.012 131.384 100.22 130.648 100.22C130.008 100.22 129.496 100.052 129.112 99.716C128.728 99.38 128.536 98.948 128.536 98.42C128.536 97.796 128.728 97.324 129.112 97.004C129.512 96.684 130.152 96.556 131.032 96.62L130.792 98.012C130.712 97.788 130.544 97.62 130.288 97.508C130.048 97.38 129.736 97.316 129.352 97.316C128.904 97.316 128.464 97.436 128.032 97.676C127.6 97.9 127.24 98.26 126.952 98.756C126.68 99.236 126.544 99.868 126.544 100.652H125.344ZM133.948 108.5V106.244H135.58V93.572H134.068V91.316H139.948V106.244H140.908V108.5H133.948ZM142.252 108.5V106.244H143.332L140.812 102.356L143.62 99.788L148.132 106.244H149.284V108.5H142.252ZM139.732 104.972L138.148 103.196L143.764 98.084H141.964V95.852H148.804V98.084H147.436L139.732 104.972ZM150.847 108.5V106.244H152.479V93.572H150.967V91.316H156.847V106.244H158.359V108.5H150.847ZM166.638 108.788C165.326 108.788 164.158 108.532 163.134 108.02C162.126 107.508 161.334 106.764 160.758 105.788C160.198 104.796 159.918 103.588 159.918 102.164C159.918 100.756 160.198 99.564 160.758 98.588C161.318 97.596 162.094 96.844 163.086 96.332C164.078 95.82 165.206 95.564 166.47 95.564L166.59 97.844C166.078 97.844 165.646 97.98 165.294 98.252C164.942 98.508 164.67 98.932 164.478 99.524C164.302 100.116 164.214 100.892 164.214 101.852C164.214 103.004 164.494 103.916 165.054 104.588C165.63 105.26 166.406 105.596 167.382 105.596C167.926 105.596 168.382 105.516 168.75 105.356C169.134 105.18 169.438 104.948 169.662 104.66C169.902 104.356 170.078 104.02 170.19 103.652H172.878C172.814 104.308 172.638 104.94 172.35 105.548C172.078 106.156 171.686 106.708 171.174 107.204C170.678 107.684 170.046 108.068 169.278 108.356C168.526 108.644 167.646 108.788 166.638 108.788ZM161.886 102.404V100.292H168.63L172.926 101.348V102.404H161.886ZM168.63 100.292C168.614 99.86 168.526 99.46 168.366 99.092C168.206 98.708 167.982 98.404 167.694 98.18C167.406 97.956 167.038 97.844 166.59 97.844L166.47 95.564C167.878 95.564 169.054 95.812 169.998 96.308C170.958 96.788 171.686 97.46 172.182 98.324C172.678 99.188 172.926 100.196 172.926 101.348L168.63 100.292Z" fill="url(#paint1_linear_2003_252)"/>
<defs>
<linearGradient id="paint0_linear_2003_252" x1="100" y1="0.5" x2="100" y2="200.5" gradientUnits="userSpaceOnUse">
<stop stop-color="#F0243B"/>
<stop offset="1" stop-color="#B41ACD"/>
</linearGradient>
<linearGradient id="paint1_linear_2003_252" x1="26" y1="100.5" x2="175" y2="100.5" gradientUnits="userSpaceOnUse">
<stop stop-color="#F0243B"/>
<stop offset="1" stop-color="#B41ACD"/>
</linearGradient>
</defs>
</svg>
