<svg width="25" height="25" viewBox="0 0 25 25" fill="none" xmlns="http://www.w3.org/2000/svg">
<path d="M20.5 11H19.5C18.9477 11 18.5 11.4477 18.5 12V13C18.5 13.5523 18.9477 14 19.5 14H20.5C21.0523 14 21.5 13.5523 21.5 13V12C21.5 11.4477 21.0523 11 20.5 11Z" stroke="#141B34" stroke-width="1.5"/>
<path d="M13 11H12C11.4477 11 11 11.4477 11 12V13C11 13.5523 11.4477 14 12 14H13C13.5523 14 14 13.5523 14 13V12C14 11.4477 13.5523 11 13 11Z" stroke="#141B34" stroke-width="1.5"/>
<path d="M5.5 11H4.5C3.94772 11 3.5 11.4477 3.5 12V13C3.5 13.5523 3.94772 14 4.5 14H5.5C6.05228 14 6.5 13.5523 6.5 13V12C6.5 11.4477 6.05228 11 5.5 11Z" stroke="#141B34" stroke-width="1.5"/>
</svg>
