<svg width="25" height="24" viewBox="0 0 25 24" fill="none" xmlns="http://www.w3.org/2000/svg">
<path d="M16 6.5C16 8.433 14.433 10 12.5 10C10.567 10 9 8.433 9 6.5C9 4.567 10.567 3 12.5 3C14.433 3 16 4.567 16 6.5Z" stroke="#141B34" stroke-width="1.5"/>
<path d="M22.5 17.5C22.5 19.433 20.933 21 19 21C17.067 21 15.5 19.433 15.5 17.5C15.5 15.567 17.067 14 19 14C20.933 14 22.5 15.567 22.5 17.5Z" stroke="#141B34" stroke-width="1.5"/>
<path d="M9.5 17.5C9.5 19.433 7.933 21 6 21C4.067 21 2.5 19.433 2.5 17.5C2.5 15.567 4.067 14 6 14C7.933 14 9.5 15.567 9.5 17.5Z" stroke="#141B34" stroke-width="1.5"/>
</svg>
