<svg width="172" height="49" viewBox="0 0 172 49" fill="none" xmlns="http://www.w3.org/2000/svg">
<path d="M10.792 32.5V30.196H12.616V18.412H10.84V16.132H17.176V30.196H19.528V32.5H10.792ZM17.176 18.508V16.132H26.512V18.508H17.176ZM17.176 25.396V22.996H22.168V25.396H17.176ZM23.992 21.196C23.992 20.252 23.808 19.572 23.44 19.156C23.088 18.724 22.472 18.508 21.592 18.508H26.512V22.276H23.992V21.196ZM17.416 22.996C18.248 22.996 18.84 22.796 19.192 22.396C19.56 21.98 19.744 21.332 19.744 20.452V20.092H22.168V22.996H17.416ZM19.744 27.94C19.744 27.044 19.56 26.396 19.192 25.996C18.84 25.596 18.248 25.396 17.416 25.396H22.168V28.78H19.744V27.94ZM33.9169 32.788C33.0689 32.788 32.3169 32.636 31.6609 32.332C31.0049 32.012 30.4849 31.532 30.1009 30.892C29.7329 30.236 29.5489 29.396 29.5489 28.372V22.084H28.3009V19.852H33.8689V28.276C33.8689 28.82 34.0289 29.228 34.3489 29.5C34.6849 29.772 35.1249 29.908 35.6689 29.908C36.0369 29.908 36.3729 29.844 36.6769 29.716C36.9809 29.572 37.2289 29.348 37.4209 29.044C37.6129 28.724 37.7089 28.3 37.7089 27.772L38.4289 27.748C38.4289 28.772 38.3009 29.66 38.0449 30.412C37.7889 31.164 37.3409 31.748 36.7009 32.164C36.0609 32.58 35.1329 32.788 33.9169 32.788ZM38.2369 32.5V28.42L37.7089 28.516V22.084H36.1489V19.852H42.0769V30.244H43.5889V32.5H38.2369ZM54.0319 32.5V30.244H55.1119V24.172C55.1119 23.612 54.9519 23.196 54.6319 22.924C54.3119 22.652 53.8719 22.516 53.3119 22.516C52.9599 22.516 52.6239 22.588 52.3039 22.732C51.9999 22.86 51.7519 23.084 51.5599 23.404C51.3679 23.708 51.2719 24.124 51.2719 24.652L50.5519 24.676C50.5519 23.668 50.6799 22.788 50.9359 22.036C51.1919 21.268 51.6479 20.684 52.3039 20.284C52.9599 19.868 53.8799 19.66 55.0639 19.66C56.3439 19.66 57.3919 20.012 58.2079 20.716C59.0239 21.404 59.4319 22.516 59.4319 24.052V30.244H60.6799V32.5H54.0319ZM45.1759 32.5V30.244H46.9039V22.084H45.3439V19.852H50.7439V24.1L51.2719 24.028V30.244H52.3519V32.5H45.1759ZM68.2379 32.74C67.1179 32.74 66.1179 32.484 65.2379 31.972C64.3739 31.46 63.7019 30.716 63.2219 29.74C62.7419 28.764 62.5019 27.572 62.5019 26.164C62.5019 24.756 62.7419 23.564 63.2219 22.588C63.7019 21.612 64.3739 20.876 65.2379 20.38C66.1179 19.868 67.1099 19.612 68.2139 19.612C69.3979 19.612 70.3259 19.876 70.9979 20.404C71.6859 20.932 72.1739 21.684 72.4619 22.66C72.7499 23.636 72.8939 24.796 72.8939 26.14L73.2059 26.188C73.2059 27.516 73.0379 28.676 72.7019 29.668C72.3659 30.644 71.8299 31.404 71.0939 31.948C70.3739 32.476 69.4219 32.74 68.2379 32.74ZM69.8219 30.004C70.3659 30.004 70.8379 29.86 71.2379 29.572C71.6379 29.284 71.9419 28.852 72.1499 28.276C72.3579 27.7 72.4619 26.996 72.4619 26.164C72.4619 25.332 72.3579 24.636 72.1499 24.076C71.9419 23.5 71.6379 23.068 71.2379 22.78C70.8379 22.492 70.3659 22.348 69.8219 22.348C69.2779 22.348 68.8059 22.492 68.4059 22.78C68.0059 23.068 67.7019 23.5 67.4939 24.076C67.3019 24.636 67.2059 25.332 67.2059 26.164C67.2059 26.996 67.3019 27.7 67.4939 28.276C67.7019 28.852 68.0059 29.284 68.4059 29.572C68.8059 29.86 69.2779 30.004 69.8219 30.004ZM72.5819 32.5V29.452L72.8219 26.164L72.2459 23.356V17.572H70.7099V15.316H76.6139V30.244H78.1259V32.5H72.5819ZM88.5794 32.908C86.7714 32.908 85.2114 32.572 83.8994 31.9C82.5874 31.212 81.5714 30.228 80.8514 28.948C80.1314 27.668 79.7714 26.124 79.7714 24.316C79.7714 22.508 80.1154 20.964 80.8034 19.684C81.5074 18.404 82.4834 17.428 83.7314 16.756C84.9794 16.068 86.4274 15.724 88.0754 15.724C89.5314 15.724 90.7474 15.988 91.7234 16.516C92.6994 17.028 93.4274 17.748 93.9074 18.676C94.3874 19.588 94.6274 20.636 94.6274 21.82H93.6434C93.5634 21.292 93.3714 20.764 93.0674 20.236C92.7634 19.692 92.3154 19.244 91.7234 18.892C91.1474 18.54 90.3954 18.364 89.4674 18.364C88.4754 18.364 87.6194 18.596 86.8994 19.06C86.1954 19.508 85.6514 20.148 85.2674 20.98C84.8994 21.812 84.7154 22.788 84.7154 23.908C84.7154 25.044 84.9154 26.036 85.3154 26.884C85.7154 27.716 86.2834 28.364 87.0194 28.828C87.7554 29.292 88.6194 29.524 89.6114 29.524C90.4914 29.524 91.2274 29.364 91.8194 29.044C92.4114 28.708 92.8674 28.268 93.1874 27.724C93.5234 27.18 93.7394 26.564 93.8354 25.876H96.5234C96.4594 27.124 96.1474 28.284 95.5874 29.356C95.0274 30.428 94.1714 31.292 93.0194 31.948C91.8674 32.588 90.3874 32.908 88.5794 32.908ZM94.6274 21.82L93.6914 19.804V16.132H96.3314V21.82H94.6274ZM98.3791 32.5V30.244H100.107V22.084H98.5471V19.852H104.427V30.244H105.939V32.5H98.3791ZM102.123 18.94C101.355 18.94 100.723 18.732 100.227 18.316C99.7311 17.9 99.4831 17.324 99.4831 16.588C99.4831 15.852 99.7311 15.276 100.227 14.86C100.723 14.444 101.363 14.236 102.147 14.236C102.931 14.236 103.563 14.444 104.043 14.86C104.523 15.276 104.763 15.852 104.763 16.588C104.763 17.324 104.523 17.9 104.043 18.316C103.563 18.732 102.923 18.94 102.123 18.94ZM107.52 32.5V30.244H109.248V22.108H107.688V19.876H113.088V24.22L113.568 24.124V30.244H116.16V32.5H107.52ZM112.368 24.652C112.416 23.324 112.656 22.292 113.088 21.556C113.536 20.804 114.112 20.276 114.816 19.972C115.52 19.668 116.264 19.516 117.048 19.516C117.96 19.516 118.688 19.748 119.232 20.212C119.776 20.676 120.048 21.26 120.048 21.964C120.048 22.62 119.832 23.164 119.4 23.596C118.984 24.012 118.408 24.22 117.672 24.22C117.032 24.22 116.52 24.052 116.136 23.716C115.752 23.38 115.56 22.948 115.56 22.42C115.56 21.796 115.752 21.324 116.136 21.004C116.536 20.684 117.176 20.556 118.056 20.62L117.816 22.012C117.736 21.788 117.568 21.62 117.312 21.508C117.072 21.38 116.76 21.316 116.376 21.316C115.928 21.316 115.488 21.436 115.056 21.676C114.624 21.9 114.264 22.26 113.976 22.756C113.704 23.236 113.568 23.868 113.568 24.652H112.368ZM120.972 32.5V30.244H122.604V17.572H121.092V15.316H126.972V30.244H127.932V32.5H120.972ZM129.276 32.5V30.244H130.356L127.836 26.356L130.644 23.788L135.156 30.244H136.308V32.5H129.276ZM126.756 28.972L125.172 27.196L130.788 22.084H128.988V19.852H135.828V22.084H134.46L126.756 28.972ZM137.87 32.5V30.244H139.502V17.572H137.99V15.316H143.87V30.244H145.382V32.5H137.87ZM153.661 32.788C152.349 32.788 151.181 32.532 150.157 32.02C149.149 31.508 148.357 30.764 147.781 29.788C147.221 28.796 146.941 27.588 146.941 26.164C146.941 24.756 147.221 23.564 147.781 22.588C148.341 21.596 149.117 20.844 150.109 20.332C151.101 19.82 152.229 19.564 153.493 19.564L153.613 21.844C153.101 21.844 152.669 21.98 152.317 22.252C151.965 22.508 151.693 22.932 151.501 23.524C151.325 24.116 151.237 24.892 151.237 25.852C151.237 27.004 151.517 27.916 152.077 28.588C152.653 29.26 153.429 29.596 154.405 29.596C154.949 29.596 155.405 29.516 155.773 29.356C156.157 29.18 156.461 28.948 156.685 28.66C156.925 28.356 157.101 28.02 157.213 27.652H159.901C159.837 28.308 159.661 28.94 159.373 29.548C159.101 30.156 158.709 30.708 158.197 31.204C157.701 31.684 157.069 32.068 156.301 32.356C155.549 32.644 154.669 32.788 153.661 32.788ZM148.909 26.404V24.292H155.653L159.949 25.348V26.404H148.909ZM155.653 24.292C155.637 23.86 155.549 23.46 155.389 23.092C155.229 22.708 155.005 22.404 154.717 22.18C154.429 21.956 154.061 21.844 153.613 21.844L153.493 19.564C154.901 19.564 156.077 19.812 157.021 20.308C157.981 20.788 158.709 21.46 159.205 22.324C159.701 23.188 159.949 24.196 159.949 25.348L155.653 24.292Z" fill="url(#paint0_linear_2005_114)"/>
<defs>
<linearGradient id="paint0_linear_2005_114" x1="10" y1="24.5" x2="162" y2="24.5" gradientUnits="userSpaceOnUse">
<stop stop-color="#00943F"/>
<stop offset="1" stop-color="#00AAFF"/>
</linearGradient>
</defs>
</svg>
